<?xml version="1.0" encoding="utf-8"?>
<!-- Generator: Adobe Illustrator 24.0.1, SVG Export Plug-In . SVG Version: 6.00 Build 0)  -->
<svg version="1.1" id="Слой_1" xmlns="http://www.w3.org/2000/svg" xmlns:xlink="http://www.w3.org/1999/xlink" x="0px" y="0px"
	 width="44px" height="44px" viewBox="0 0 44 44" style="enable-background:new 0 0 44 44;" xml:space="preserve">
<style type="text/css">
	.st0{fill:#397DFF;}
	.st1{fill:#FFFFFF;}
</style>
<g>
	<path class="st0" d="M8,0h28c4.4,0,8,3.6,8,8v28c0,4.4-3.6,8-8,8H8c-4.4,0-8-3.6-8-8V8C0,3.6,3.6,0,8,0z"/>
</g>
<path class="st1" d="M31.2,9.1C30.6,8.4,29.6,8,28.7,8H15.3c-1,0-1.9,0.4-2.6,1.1c-0.6,0.6-1.1,1.6-1.1,2.6v20.7
	c0,1,0.4,1.9,1.1,2.6c0.6,0.6,1.6,1.1,2.6,1.1h13.3c1,0,1.9-0.4,2.6-1.1c0.6-0.6,1.1-1.6,1.1-2.6V11.7C32.3,10.7,31.9,9.7,31.2,9.1z
	 M30.9,32.4c0,0.6-0.3,1.2-0.6,1.6c-0.4,0.4-1,0.6-1.6,0.6H15.3c-0.6,0-1.2-0.3-1.6-0.6c-0.4-0.4-0.6-1-0.6-1.6V11.7
	c0-0.6,0.3-1.2,0.6-1.6c0.4-0.4,1-0.6,1.6-0.6h13.3c0.6,0,1.2,0.3,1.6,0.6c0.4,0.4,0.6,1,0.6,1.6V32.4z"/>
<path class="st1" d="M22,27.5c0.4,0,0.7-0.3,0.7-0.7S22.4,26,22,26s-0.7,0.3-0.7,0.7S21.6,27.5,22,27.5z"/>
<path class="st1" d="M22,20c-1.8,0-3.5,0.8-4.7,1.9c-1.2,1.2-1.9,2.9-1.9,4.7c0,1.8,0.8,3.5,1.9,4.7c1.2,1.2,2.9,1.9,4.7,1.9
	c1.8,0,3.5-0.8,4.7-1.9c1.2-1.2,1.9-2.9,1.9-4.7c0-1.8-0.8-3.5-1.9-4.7C25.5,20.8,23.8,20,22,20z M25.7,30.4c-1,1-2.3,1.6-3.7,1.6
	c-1.5,0-2.8-0.6-3.7-1.6c-1-1-1.6-2.3-1.6-3.7c0-1.5,0.6-2.8,1.6-3.7s2.3-1.6,3.7-1.6c1.4,0,2.8,0.6,3.7,1.6c1,1,1.6,2.3,1.6,3.7
	C27.2,28.2,26.7,29.5,25.7,30.4z"/>
<path class="st1" d="M22,22.9c-1.1,0-2,0.4-2.7,1.1c-0.7,0.7-1.1,1.7-1.1,2.7c0,1.1,0.4,2,1.1,2.7c0.7,0.7,1.7,1.1,2.7,1.1
	c1.1,0,2-0.4,2.7-1.1c0.7-0.7,1.1-1.7,1.1-2.7c0-1.1-0.4-2-1.1-2.7C24,23.3,23.1,22.9,22,22.9z M23.7,28.4c-0.5,0.5-1,0.7-1.7,0.7
	s-1.3-0.3-1.7-0.7c-0.5-0.5-0.7-1-0.7-1.7c0-0.7,0.3-1.3,0.7-1.7c0.5-0.5,1-0.7,1.7-0.7s1.3,0.3,1.7,0.7c0.5,0.5,0.7,1,0.7,1.7
	C24.4,27.4,24.1,28,23.7,28.4z"/>
<path class="st1" d="M22,19.2c1.2,0,2.3-0.5,3-1.3c0.8-0.8,1.3-1.9,1.3-3c0-1.2-0.5-2.3-1.3-3c-0.8-0.8-1.9-1.3-3-1.3
	c-1.2,0-2.3,0.5-3,1.3c-0.8,0.8-1.3,1.9-1.3,3c0,1.2,0.5,2.3,1.3,3C19.7,18.7,20.8,19.2,22,19.2z M20,12.9c0.5-0.5,1.2-0.8,2-0.8
	c0.8,0,1.5,0.3,2,0.8c0.5,0.5,0.8,1.2,0.8,2c0,0.8-0.3,1.5-0.8,2c-0.5,0.5-1.2,0.8-2,0.8c-0.8,0-1.5-0.3-2-0.8
	c-0.5-0.5-0.8-1.2-0.8-2C19.1,14.1,19.4,13.4,20,12.9z"/>
<path class="st1" d="M22,16.6c0.5,0,0.8-0.2,1.2-0.5c0.3-0.3,0.5-0.7,0.5-1.2c0-0.5-0.2-0.8-0.5-1.2c-0.3-0.3-0.7-0.5-1.2-0.5
	c-0.5,0-0.8,0.2-1.2,0.5c-0.3,0.3-0.5,0.7-0.5,1.2c0,0.5,0.2,0.8,0.5,1.2C21.2,16.4,21.5,16.6,22,16.6z M21.7,14.6
	c0.1-0.1,0.2-0.1,0.3-0.1c0.1,0,0.3,0.1,0.3,0.1c0.1,0.1,0.1,0.2,0.1,0.3c0,0.1-0.1,0.3-0.1,0.3c-0.1,0.1-0.2,0.1-0.3,0.1
	c-0.1,0-0.3-0.1-0.3-0.1c-0.1-0.1-0.1-0.2-0.1-0.3C21.5,14.8,21.6,14.7,21.7,14.6z"/>
</svg>
